<?xml version="1.0" standalone="no"?>
<!DOCTYPE svg PUBLIC "-//W3C//DTD SVG 20010904//EN"
 "http://www.w3.org/TR/2001/REC-SVG-20010904/DTD/svg10.dtd">
<svg version="1.0" xmlns="http://www.w3.org/2000/svg"
 width="1065.000000pt" height="459.000000pt" viewBox="0 0 1065.000000 459.000000"
 preserveAspectRatio="xMidYMid meet">

<g transform="translate(0.000000,459.000000) scale(0.100000,-0.100000)"
fill="#000000" stroke="none">
<path d="M3828 4188 c-38 -12 -68 -25 -68 -29 0 -5 27 -77 60 -160 34 -83 60
-152 58 -154 -2 -1 -613 -179 -1358 -395 -745 -216 -1357 -394 -1358 -396 -2
-1 34 -138 80 -304 l83 -301 28 5 c75 15 137 38 137 52 0 8 -25 105 -56 215
-31 110 -54 202 -53 203 2 2 614 180 1359 396 745 216 1356 394 1358 395 4 4
-192 495 -198 494 -3 -1 -35 -10 -72 -21z"/>
<path d="M5045 3848 c-2 -7 -11 -39 -19 -71 -14 -57 -14 -58 7 -66 12 -5 294
-113 626 -240 333 -127 609 -230 614 -228 13 4 59 120 50 127 -5 4 -278 109
-608 235 -330 126 -615 235 -633 242 -26 11 -33 11 -37 1z"/>
<path d="M6937 3223 c-3 -5 -215 -564 -472 -1243 -257 -679 -470 -1238 -474
-1241 -3 -4 -105 24 -226 62 -121 38 -223 69 -226 69 -7 0 -63 -140 -58 -144
2 -1 143 -45 314 -98 182 -57 312 -93 316 -87 3 6 216 567 474 1249 l468 1238
76 -28 c42 -15 427 -159 856 -318 429 -160 788 -293 797 -297 15 -6 42 42 168
302 83 169 152 312 153 318 2 9 -133 63 -161 64 -8 1 -64 -103 -133 -245 -100
-206 -122 -245 -137 -239 -9 4 -399 148 -867 322 -467 173 -853 317 -857 319
-3 2 -9 1 -11 -3z"/>
<path d="M4177 3080 c-33 -10 -61 -20 -63 -22 -2 -3 129 -411 291 -908 162
-497 293 -905 292 -906 -1 0 -760 -230 -1687 -509 -927 -280 -1688 -511 -1691
-514 -11 -10 43 -182 55 -178 6 2 805 244 1776 537 971 293 1766 533 1767 534
1 1 -143 447 -320 991 -279 857 -325 990 -342 992 -11 1 -46 -7 -78 -17z"/>
<path d="M2115 2118 c-720 -209 -1312 -382 -1314 -384 -2 -2 7 -43 19 -93 22
-89 22 -89 48 -81 15 5 603 176 1307 380 704 204 1289 374 1301 378 l21 7 -25
88 c-13 48 -30 87 -36 86 -6 0 -600 -172 -1321 -381z"/>
<path d="M10404 1645 c-32 -25 -60 -44 -63 -42 -118 67 -252 85 -364 48 -167
-56 -265 -231 -212 -380 35 -101 107 -167 285 -265 123 -68 138 -80 157 -124
29 -70 -38 -132 -144 -132 -149 0 -278 111 -304 263 -7 45 -16 67 -25 67 -12
0 -14 -34 -14 -190 0 -104 3 -190 6 -190 3 0 30 20 60 44 l54 45 56 -34 c83
-50 170 -63 280 -41 48 9 112 29 141 44 153 74 212 251 137 408 -33 69 -79
104 -326 248 -54 31 -102 65 -108 76 -28 52 4 122 64 138 79 22 215 -27 284
-102 37 -40 51 -71 67 -148 3 -16 12 -28 20 -28 13 0 15 27 15 170 0 94 -2
170 -4 170 -2 0 -30 -20 -62 -45z"/>
<path d="M9030 1670 c-169 -21 -302 -107 -370 -240 -41 -80 -51 -129 -51 -238
0 -156 43 -264 139 -354 98 -92 213 -132 377 -132 198 0 332 62 425 199 92
136 105 359 29 520 -82 175 -305 274 -549 245z m144 -62 c14 -19 16 -76 16
-419 0 -370 -1 -398 -18 -419 -23 -28 -75 -30 -103 -4 -18 16 -19 37 -19 421
0 390 1 404 20 423 28 28 84 27 104 -2z"/>
<path d="M7460 1631 c0 -19 6 -21 55 -21 l55 0 0 -425 0 -425 -55 0 c-42 0
-55 -3 -55 -15 0 -13 42 -15 320 -15 273 0 320 2 320 15 0 10 -16 15 -62 17
l-63 3 -3 166 -2 166 167 6 c234 7 295 32 350 144 24 50 28 70 28 143 0 129
-44 202 -145 240 -27 11 -137 15 -472 18 -438 3 -438 3 -438 -17z m648 -66 c9
-28 12 -90 10 -212 -3 -160 -5 -174 -24 -194 -15 -14 -35 -21 -70 -22 l-49 -2
-3 238 -2 238 62 -3 63 -3 13 -40z"/>
</g>
</svg>
